<mxfile host="app.diagrams.net" modified="2024-04-18T03:35:20.865Z" agent="Mozilla/5.0 (Windows NT 10.0; Win64; x64) AppleWebKit/537.36 (KHTML, like Gecko) Chrome/123.0.0.0 Safari/537.36" etag="jwl45upDg4o510gRYtfz" version="24.2.5" type="device">
  <diagram name="Страница — 1" id="H12W9JLPoyVBt7vZ49CQ">
    <mxGraphModel dx="1434" dy="780" grid="1" gridSize="10" guides="1" tooltips="1" connect="1" arrows="1" fold="1" page="1" pageScale="1" pageWidth="827" pageHeight="1169" math="0" shadow="0">
      <root>
        <mxCell id="0" />
        <mxCell id="1" parent="0" />
        <mxCell id="Sf8RvTwvEqck9QnSxWCd-1" value="FirstThread" style="swimlane;fontStyle=0;childLayout=stackLayout;horizontal=1;startSize=30;horizontalStack=0;resizeParent=1;resizeParentMax=0;resizeLast=0;collapsible=1;marginBottom=0;whiteSpace=wrap;html=1;" parent="1" vertex="1">
          <mxGeometry x="80" y="300" width="280" height="120" as="geometry" />
        </mxCell>
        <mxCell id="Sf8RvTwvEqck9QnSxWCd-2" value="-numberForBuffer:double" style="text;strokeColor=none;fillColor=none;align=left;verticalAlign=middle;spacingLeft=4;spacingRight=4;overflow=hidden;points=[[0,0.5],[1,0.5]];portConstraint=eastwest;rotatable=0;whiteSpace=wrap;html=1;" parent="Sf8RvTwvEqck9QnSxWCd-1" vertex="1">
          <mxGeometry y="30" width="280" height="30" as="geometry" />
        </mxCell>
        <mxCell id="Sf8RvTwvEqck9QnSxWCd-3" value="-buffer:Buffer" style="text;strokeColor=none;fillColor=none;align=left;verticalAlign=middle;spacingLeft=4;spacingRight=4;overflow=hidden;points=[[0,0.5],[1,0.5]];portConstraint=eastwest;rotatable=0;whiteSpace=wrap;html=1;" parent="Sf8RvTwvEqck9QnSxWCd-1" vertex="1">
          <mxGeometry y="60" width="280" height="30" as="geometry" />
        </mxCell>
        <mxCell id="Sf8RvTwvEqck9QnSxWCd-6" value="+run()" style="text;strokeColor=none;fillColor=none;align=left;verticalAlign=middle;spacingLeft=4;spacingRight=4;overflow=hidden;points=[[0,0.5],[1,0.5]];portConstraint=eastwest;rotatable=0;whiteSpace=wrap;html=1;" parent="Sf8RvTwvEqck9QnSxWCd-1" vertex="1">
          <mxGeometry y="90" width="280" height="30" as="geometry" />
        </mxCell>
        <mxCell id="Sf8RvTwvEqck9QnSxWCd-9" value="" style="endArrow=none;html=1;rounded=0;exitX=1.004;exitY=0;exitDx=0;exitDy=0;entryX=0.004;entryY=0;entryDx=0;entryDy=0;exitPerimeter=0;entryPerimeter=0;" parent="Sf8RvTwvEqck9QnSxWCd-1" edge="1">
          <mxGeometry width="50" height="50" relative="1" as="geometry">
            <mxPoint x="281.1199999999999" y="90" as="sourcePoint" />
            <mxPoint x="1.1199999999998909" y="90" as="targetPoint" />
          </mxGeometry>
        </mxCell>
        <mxCell id="Sf8RvTwvEqck9QnSxWCd-16" value="Buffer" style="swimlane;fontStyle=0;childLayout=stackLayout;horizontal=1;startSize=30;horizontalStack=0;resizeParent=1;resizeParentMax=0;resizeLast=0;collapsible=1;marginBottom=0;whiteSpace=wrap;html=1;" parent="1" vertex="1">
          <mxGeometry x="740" y="300" width="280" height="210" as="geometry" />
        </mxCell>
        <mxCell id="zXZSiPo3igJwiQ7f4-af-27" style="edgeStyle=orthogonalEdgeStyle;rounded=0;orthogonalLoop=1;jettySize=auto;html=1;endArrow=none;endFill=0;" parent="Sf8RvTwvEqck9QnSxWCd-16" edge="1">
          <mxGeometry relative="1" as="geometry">
            <Array as="points">
              <mxPoint x="140" />
              <mxPoint x="140" y="-60" />
            </Array>
            <mxPoint x="140" as="sourcePoint" />
            <mxPoint x="-360" y="-60" as="targetPoint" />
          </mxGeometry>
        </mxCell>
        <mxCell id="zXZSiPo3igJwiQ7f4-af-9" value="-N:int" style="text;strokeColor=none;fillColor=none;align=left;verticalAlign=middle;spacingLeft=4;spacingRight=4;overflow=hidden;points=[[0,0.5],[1,0.5]];portConstraint=eastwest;rotatable=0;whiteSpace=wrap;html=1;" parent="Sf8RvTwvEqck9QnSxWCd-16" vertex="1">
          <mxGeometry y="30" width="280" height="30" as="geometry" />
        </mxCell>
        <mxCell id="zXZSiPo3igJwiQ7f4-af-10" value="-arrayListArrayList&amp;lt;Double&amp;gt;" style="text;strokeColor=none;fillColor=none;align=left;verticalAlign=middle;spacingLeft=4;spacingRight=4;overflow=hidden;points=[[0,0.5],[1,0.5]];portConstraint=eastwest;rotatable=0;whiteSpace=wrap;html=1;" parent="Sf8RvTwvEqck9QnSxWCd-16" vertex="1">
          <mxGeometry y="60" width="280" height="30" as="geometry" />
        </mxCell>
        <mxCell id="Sf8RvTwvEqck9QnSxWCd-18" value="+getSize(): int" style="text;strokeColor=none;fillColor=none;align=left;verticalAlign=middle;spacingLeft=4;spacingRight=4;overflow=hidden;points=[[0,0.5],[1,0.5]];portConstraint=eastwest;rotatable=0;whiteSpace=wrap;html=1;" parent="Sf8RvTwvEqck9QnSxWCd-16" vertex="1">
          <mxGeometry y="90" width="280" height="30" as="geometry" />
        </mxCell>
        <mxCell id="Sf8RvTwvEqck9QnSxWCd-19" value="" style="endArrow=none;html=1;rounded=0;entryX=0.004;entryY=0;entryDx=0;entryDy=0;entryPerimeter=0;exitX=0.999;exitY=-0.001;exitDx=0;exitDy=0;exitPerimeter=0;" parent="Sf8RvTwvEqck9QnSxWCd-16" source="Sf8RvTwvEqck9QnSxWCd-18" target="Sf8RvTwvEqck9QnSxWCd-18" edge="1">
          <mxGeometry width="50" height="50" relative="1" as="geometry">
            <mxPoint x="275" y="60" as="sourcePoint" />
            <mxPoint x="140" y="135" as="targetPoint" />
          </mxGeometry>
        </mxCell>
        <mxCell id="zXZSiPo3igJwiQ7f4-af-13" value="+getN(): int" style="text;strokeColor=none;fillColor=none;align=left;verticalAlign=middle;spacingLeft=4;spacingRight=4;overflow=hidden;points=[[0,0.5],[1,0.5]];portConstraint=eastwest;rotatable=0;whiteSpace=wrap;html=1;" parent="Sf8RvTwvEqck9QnSxWCd-16" vertex="1">
          <mxGeometry y="120" width="280" height="30" as="geometry" />
        </mxCell>
        <mxCell id="zXZSiPo3igJwiQ7f4-af-12" value="+addElement(element: double)" style="text;strokeColor=none;fillColor=none;align=left;verticalAlign=middle;spacingLeft=4;spacingRight=4;overflow=hidden;points=[[0,0.5],[1,0.5]];portConstraint=eastwest;rotatable=0;whiteSpace=wrap;html=1;" parent="Sf8RvTwvEqck9QnSxWCd-16" vertex="1">
          <mxGeometry y="150" width="280" height="30" as="geometry" />
        </mxCell>
        <mxCell id="zXZSiPo3igJwiQ7f4-af-11" value="+removeElement(): double" style="text;strokeColor=none;fillColor=none;align=left;verticalAlign=middle;spacingLeft=4;spacingRight=4;overflow=hidden;points=[[0,0.5],[1,0.5]];portConstraint=eastwest;rotatable=0;whiteSpace=wrap;html=1;" parent="Sf8RvTwvEqck9QnSxWCd-16" vertex="1">
          <mxGeometry y="180" width="280" height="30" as="geometry" />
        </mxCell>
        <mxCell id="Sf8RvTwvEqck9QnSxWCd-29" value="Main" style="swimlane;fontStyle=0;childLayout=stackLayout;horizontal=1;startSize=30;horizontalStack=0;resizeParent=1;resizeParentMax=0;resizeLast=0;collapsible=1;marginBottom=0;whiteSpace=wrap;html=1;" parent="1" vertex="1">
          <mxGeometry x="240" y="90" width="280" height="90" as="geometry" />
        </mxCell>
        <mxCell id="Sf8RvTwvEqck9QnSxWCd-30" value="&amp;nbsp;" style="text;strokeColor=none;fillColor=none;align=left;verticalAlign=middle;spacingLeft=4;spacingRight=4;overflow=hidden;points=[[0,0.5],[1,0.5]];portConstraint=eastwest;rotatable=0;whiteSpace=wrap;html=1;" parent="Sf8RvTwvEqck9QnSxWCd-29" vertex="1">
          <mxGeometry y="30" width="280" height="30" as="geometry" />
        </mxCell>
        <mxCell id="Sf8RvTwvEqck9QnSxWCd-31" value="" style="endArrow=none;html=1;rounded=0;exitX=1.004;exitY=0;exitDx=0;exitDy=0;entryX=0.004;entryY=0;entryDx=0;entryDy=0;exitPerimeter=0;entryPerimeter=0;" parent="Sf8RvTwvEqck9QnSxWCd-29" edge="1">
          <mxGeometry width="50" height="50" relative="1" as="geometry">
            <mxPoint x="280" y="60" as="sourcePoint" />
            <mxPoint x="-5.240252676230739e-14" y="60" as="targetPoint" />
          </mxGeometry>
        </mxCell>
        <mxCell id="Sf8RvTwvEqck9QnSxWCd-32" value="&lt;u&gt;+main(args String[])&lt;/u&gt;" style="text;strokeColor=none;fillColor=none;align=left;verticalAlign=middle;spacingLeft=4;spacingRight=4;overflow=hidden;points=[[0,0.5],[1,0.5]];portConstraint=eastwest;rotatable=0;whiteSpace=wrap;html=1;" parent="Sf8RvTwvEqck9QnSxWCd-29" vertex="1">
          <mxGeometry y="60" width="280" height="30" as="geometry" />
        </mxCell>
        <mxCell id="zXZSiPo3igJwiQ7f4-af-1" value="SecondThread" style="swimlane;fontStyle=0;childLayout=stackLayout;horizontal=1;startSize=30;horizontalStack=0;resizeParent=1;resizeParentMax=0;resizeLast=0;collapsible=1;marginBottom=0;whiteSpace=wrap;html=1;" parent="1" vertex="1">
          <mxGeometry x="400" y="300" width="280" height="120" as="geometry" />
        </mxCell>
        <mxCell id="zXZSiPo3igJwiQ7f4-af-3" value="-buffer:Buffer" style="text;strokeColor=none;fillColor=none;align=left;verticalAlign=middle;spacingLeft=4;spacingRight=4;overflow=hidden;points=[[0,0.5],[1,0.5]];portConstraint=eastwest;rotatable=0;whiteSpace=wrap;html=1;" parent="zXZSiPo3igJwiQ7f4-af-1" vertex="1">
          <mxGeometry y="30" width="280" height="30" as="geometry" />
        </mxCell>
        <mxCell id="zXZSiPo3igJwiQ7f4-af-6" value="-count:int" style="text;strokeColor=none;fillColor=none;align=left;verticalAlign=middle;spacingLeft=4;spacingRight=4;overflow=hidden;points=[[0,0.5],[1,0.5]];portConstraint=eastwest;rotatable=0;whiteSpace=wrap;html=1;" parent="zXZSiPo3igJwiQ7f4-af-1" vertex="1">
          <mxGeometry y="60" width="280" height="30" as="geometry" />
        </mxCell>
        <mxCell id="zXZSiPo3igJwiQ7f4-af-4" value="+run()" style="text;strokeColor=none;fillColor=none;align=left;verticalAlign=middle;spacingLeft=4;spacingRight=4;overflow=hidden;points=[[0,0.5],[1,0.5]];portConstraint=eastwest;rotatable=0;whiteSpace=wrap;html=1;" parent="zXZSiPo3igJwiQ7f4-af-1" vertex="1">
          <mxGeometry y="90" width="280" height="30" as="geometry" />
        </mxCell>
        <mxCell id="zXZSiPo3igJwiQ7f4-af-5" value="" style="endArrow=none;html=1;rounded=0;exitX=1.004;exitY=0;exitDx=0;exitDy=0;entryX=0.004;entryY=0;entryDx=0;entryDy=0;exitPerimeter=0;entryPerimeter=0;" parent="zXZSiPo3igJwiQ7f4-af-1" edge="1">
          <mxGeometry width="50" height="50" relative="1" as="geometry">
            <mxPoint x="279.9999999999999" y="89.6" as="sourcePoint" />
            <mxPoint x="-1.092459456231154e-13" y="89.6" as="targetPoint" />
          </mxGeometry>
        </mxCell>
        <mxCell id="zXZSiPo3igJwiQ7f4-af-14" value="" style="endArrow=classic;html=1;rounded=0;exitX=0.5;exitY=0;exitDx=0;exitDy=0;entryX=0.496;entryY=1;entryDx=0;entryDy=0;entryPerimeter=0;" parent="1" source="Sf8RvTwvEqck9QnSxWCd-1" target="Sf8RvTwvEqck9QnSxWCd-32" edge="1">
          <mxGeometry width="50" height="50" relative="1" as="geometry">
            <mxPoint x="370" y="370" as="sourcePoint" />
            <mxPoint x="420" y="320" as="targetPoint" />
            <Array as="points">
              <mxPoint x="220" y="240" />
              <mxPoint x="379" y="240" />
            </Array>
          </mxGeometry>
        </mxCell>
        <mxCell id="zXZSiPo3igJwiQ7f4-af-15" value="" style="endArrow=none;html=1;rounded=0;exitX=0.5;exitY=0;exitDx=0;exitDy=0;endFill=0;" parent="1" edge="1">
          <mxGeometry width="50" height="50" relative="1" as="geometry">
            <mxPoint x="539" y="300" as="sourcePoint" />
            <mxPoint x="370" y="240" as="targetPoint" />
            <Array as="points">
              <mxPoint x="539" y="240" />
            </Array>
          </mxGeometry>
        </mxCell>
        <mxCell id="zXZSiPo3igJwiQ7f4-af-16" value="&lt;div&gt;&amp;lt;&amp;lt;Interface&amp;gt;&amp;gt;&lt;/div&gt;&lt;div&gt;Runnable&lt;/div&gt;" style="swimlane;fontStyle=0;childLayout=stackLayout;horizontal=1;startSize=30;horizontalStack=0;resizeParent=1;resizeParentMax=0;resizeLast=0;collapsible=1;marginBottom=0;whiteSpace=wrap;html=1;" parent="1" vertex="1">
          <mxGeometry x="240" y="550" width="280" height="90" as="geometry" />
        </mxCell>
        <mxCell id="zXZSiPo3igJwiQ7f4-af-18" value="&amp;nbsp;" style="text;strokeColor=none;fillColor=none;align=left;verticalAlign=middle;spacingLeft=4;spacingRight=4;overflow=hidden;points=[[0,0.5],[1,0.5]];portConstraint=eastwest;rotatable=0;whiteSpace=wrap;html=1;" parent="zXZSiPo3igJwiQ7f4-af-16" vertex="1">
          <mxGeometry y="30" width="280" height="30" as="geometry" />
        </mxCell>
        <mxCell id="zXZSiPo3igJwiQ7f4-af-20" value="" style="endArrow=none;html=1;rounded=0;entryX=0.004;entryY=0;entryDx=0;entryDy=0;entryPerimeter=0;exitX=0.999;exitY=-0.001;exitDx=0;exitDy=0;exitPerimeter=0;" parent="zXZSiPo3igJwiQ7f4-af-16" edge="1">
          <mxGeometry width="50" height="50" relative="1" as="geometry">
            <mxPoint x="279.72" y="59.97000000000003" as="sourcePoint" />
            <mxPoint x="1.1199999999998909" y="59.99999999999977" as="targetPoint" />
          </mxGeometry>
        </mxCell>
        <mxCell id="zXZSiPo3igJwiQ7f4-af-23" value="+run()" style="text;strokeColor=none;fillColor=none;align=left;verticalAlign=middle;spacingLeft=4;spacingRight=4;overflow=hidden;points=[[0,0.5],[1,0.5]];portConstraint=eastwest;rotatable=0;whiteSpace=wrap;html=1;" parent="zXZSiPo3igJwiQ7f4-af-16" vertex="1">
          <mxGeometry y="60" width="280" height="30" as="geometry" />
        </mxCell>
        <mxCell id="zXZSiPo3igJwiQ7f4-af-24" style="edgeStyle=orthogonalEdgeStyle;rounded=0;orthogonalLoop=1;jettySize=auto;html=1;exitX=0.5;exitY=0;exitDx=0;exitDy=0;entryX=0.501;entryY=0.998;entryDx=0;entryDy=0;entryPerimeter=0;endArrow=block;endFill=0;" parent="1" source="zXZSiPo3igJwiQ7f4-af-16" target="zXZSiPo3igJwiQ7f4-af-4" edge="1">
          <mxGeometry relative="1" as="geometry">
            <Array as="points">
              <mxPoint x="380" y="500" />
              <mxPoint x="540" y="500" />
            </Array>
          </mxGeometry>
        </mxCell>
        <mxCell id="zXZSiPo3igJwiQ7f4-af-25" style="edgeStyle=orthogonalEdgeStyle;rounded=0;orthogonalLoop=1;jettySize=auto;html=1;exitX=0.5;exitY=0;exitDx=0;exitDy=0;endArrow=block;endFill=0;" parent="1" source="zXZSiPo3igJwiQ7f4-af-16" edge="1">
          <mxGeometry relative="1" as="geometry">
            <mxPoint x="220" y="420" as="targetPoint" />
            <Array as="points">
              <mxPoint x="380" y="500" />
              <mxPoint x="220" y="500" />
            </Array>
          </mxGeometry>
        </mxCell>
        <mxCell id="zXZSiPo3igJwiQ7f4-af-28" value="1" style="text;html=1;align=center;verticalAlign=middle;whiteSpace=wrap;rounded=0;" parent="1" vertex="1">
          <mxGeometry x="860" y="270" width="60" height="30" as="geometry" />
        </mxCell>
      </root>
    </mxGraphModel>
  </diagram>
</mxfile>
